<svg width="188" height="64" viewBox="0 0 188 64" fill="none" xmlns="http://www.w3.org/2000/svg">
<g filter="url(#filter0_dd)">
<path d="M14 32C14 22.0589 22.0589 14 32 14H156C165.941 14 174 22.0589 174 32C174 41.9411 165.941 50 156 50H32C22.0589 50 14 41.9411 14 32Z" fill="#E9F0F7"/>
<path d="M14 32C14 22.0589 22.0589 14 32 14H156C165.941 14 174 22.0589 174 32C174 41.9411 165.941 50 156 50H32C22.0589 50 14 41.9411 14 32Z" fill="url(#paint0_linear)" fill-opacity="0.3"/>
<path d="M14.5 32C14.5 22.335 22.335 14.5 32 14.5H156C165.665 14.5 173.5 22.335 173.5 32C173.5 41.665 165.665 49.5 156 49.5H32C22.335 49.5 14.5 41.665 14.5 32Z" stroke="url(#paint1_linear)"/>
</g>
<defs>
<filter id="filter0_dd" x="0" y="0" width="188" height="64" filterUnits="userSpaceOnUse" color-interpolation-filters="sRGB">
<feFlood flood-opacity="0" result="BackgroundImageFix"/>
<feColorMatrix in="SourceAlpha" type="matrix" values="0 0 0 0 0 0 0 0 0 0 0 0 0 0 0 0 0 0 127 0"/>
<feOffset dx="4" dy="4"/>
<feGaussianBlur stdDeviation="5"/>
<feColorMatrix type="matrix" values="0 0 0 0 0.5402 0 0 0 0 0.6068 0 0 0 0 0.74 0 0 0 0.4 0"/>
<feBlend mode="normal" in2="BackgroundImageFix" result="effect1_dropShadow"/>
<feColorMatrix in="SourceAlpha" type="matrix" values="0 0 0 0 0 0 0 0 0 0 0 0 0 0 0 0 0 0 127 0"/>
<feOffset dx="-4" dy="-4"/>
<feGaussianBlur stdDeviation="5"/>
<feColorMatrix type="matrix" values="0 0 0 0 1 0 0 0 0 1 0 0 0 0 1 0 0 0 0.9 0"/>
<feBlend mode="normal" in2="effect1_dropShadow" result="effect2_dropShadow"/>
<feBlend mode="normal" in="SourceGraphic" in2="effect2_dropShadow" result="shape"/>
</filter>
<linearGradient id="paint0_linear" x1="170.667" y1="47.45" x2="155.117" y2="-16.7676" gradientUnits="userSpaceOnUse">
<stop stop-color="white"/>
<stop offset="1" stop-color="#E9F0F7"/>
</linearGradient>
<linearGradient id="paint1_linear" x1="166" y1="48.5" x2="150.222" y2="-19.2682" gradientUnits="userSpaceOnUse">
<stop stop-color="#D6E5F2"/>
<stop offset="0.713542" stop-color="white" stop-opacity="0.3"/>
</linearGradient>
</defs>
</svg>
