<svg width="80" height="32" viewBox="0 0 80 32" fill="none" xmlns="http://www.w3.org/2000/svg">
<g filter="url(#filter0_ii)">
<path d="M0 16C0 7.16344 7.16344 0 16 0H64C72.8366 0 80 7.16344 80 16C80 24.8366 72.8366 32 64 32H16C7.16344 32 0 24.8366 0 16Z" fill="#E9F0F7"/>
<path d="M0 16C0 7.16344 7.16344 0 16 0H64C72.8366 0 80 7.16344 80 16C80 24.8366 72.8366 32 64 32H16C7.16344 32 0 24.8366 0 16Z" fill="url(#paint0_linear)" fill-opacity="0.3"/>
</g>
<path d="M0.5 16C0.5 7.43959 7.43959 0.5 16 0.5H64C72.5604 0.5 79.5 7.43959 79.5 16C79.5 24.5604 72.5604 31.5 64 31.5H16C7.43959 31.5 0.5 24.5604 0.5 16Z" stroke="url(#paint1_linear)"/>
<defs>
<filter id="filter0_ii" x="-4" y="-4" width="88" height="40" filterUnits="userSpaceOnUse" color-interpolation-filters="sRGB">
<feFlood flood-opacity="0" result="BackgroundImageFix"/>
<feBlend mode="normal" in="SourceGraphic" in2="BackgroundImageFix" result="shape"/>
<feColorMatrix in="SourceAlpha" type="matrix" values="0 0 0 0 0 0 0 0 0 0 0 0 0 0 0 0 0 0 127 0" result="hardAlpha"/>
<feOffset dx="4" dy="4"/>
<feGaussianBlur stdDeviation="5"/>
<feComposite in2="hardAlpha" operator="arithmetic" k2="-1" k3="1"/>
<feColorMatrix type="matrix" values="0 0 0 0 0.541176 0 0 0 0 0.607843 0 0 0 0 0.741176 0 0 0 0.3 0"/>
<feBlend mode="normal" in2="shape" result="effect1_innerShadow"/>
<feColorMatrix in="SourceAlpha" type="matrix" values="0 0 0 0 0 0 0 0 0 0 0 0 0 0 0 0 0 0 127 0" result="hardAlpha"/>
<feOffset dx="-4" dy="-4"/>
<feGaussianBlur stdDeviation="5"/>
<feComposite in2="hardAlpha" operator="arithmetic" k2="-1" k3="1"/>
<feColorMatrix type="matrix" values="0 0 0 0 1 0 0 0 0 1 0 0 0 0 1 0 0 0 0.9 0"/>
<feBlend mode="normal" in2="effect1_innerShadow" result="effect2_innerShadow"/>
</filter>
<linearGradient id="paint0_linear" x1="78.3333" y1="29.7333" x2="56.3869" y2="-21.2484" gradientUnits="userSpaceOnUse">
<stop stop-color="white"/>
<stop offset="1" stop-color="#E9F0F7"/>
</linearGradient>
<linearGradient id="paint1_linear" x1="3" y1="2" x2="23.3184" y2="51.864" gradientUnits="userSpaceOnUse">
<stop stop-color="#E9F0F7"/>
<stop offset="0.785234" stop-color="white" stop-opacity="0.25"/>
</linearGradient>
</defs>
</svg>
