<svg width="188" height="64" viewBox="0 0 188 64" fill="none" xmlns="http://www.w3.org/2000/svg">
<g filter="url(#filter0_dd)">
<path d="M14 32C14 22.0589 22.0589 14 32 14H156C165.941 14 174 22.0589 174 32C174 41.9411 165.941 50 156 50H32C22.0589 50 14 41.9411 14 32Z" fill="#E9F0F7"/>
<path d="M14 32C14 22.0589 22.0589 14 32 14H156C165.941 14 174 22.0589 174 32C174 41.9411 165.941 50 156 50H32C22.0589 50 14 41.9411 14 32Z" fill="url(#paint0_linear)" fill-opacity="0.3"/>
<path d="M14.5 32C14.5 22.335 22.335 14.5 32 14.5H156C165.665 14.5 173.5 22.335 173.5 32C173.5 41.665 165.665 49.5 156 49.5H32C22.335 49.5 14.5 41.665 14.5 32Z" stroke="url(#paint1_linear)"/>
</g>
<path d="M117.879 36H113.899V28.8613H117.879V29.5986H114.729V31.8984H117.688V32.6309H114.729V35.2578H117.879V36ZM123.006 36V32.5381C123.006 32.1019 122.907 31.7764 122.708 31.5615C122.509 31.3467 122.199 31.2393 121.775 31.2393C121.215 31.2393 120.805 31.3906 120.545 31.6934C120.285 31.9961 120.154 32.4958 120.154 33.1924V36H119.344V30.6484H120.003L120.135 31.3809H120.174C120.34 31.1172 120.573 30.9137 120.872 30.7705C121.172 30.624 121.505 30.5508 121.873 30.5508C122.518 30.5508 123.003 30.707 123.328 31.0195C123.654 31.3288 123.816 31.8252 123.816 32.5088V36H123.006ZM129.866 30.6484V31.1611L128.875 31.2783C128.966 31.3923 129.048 31.542 129.119 31.7275C129.191 31.9098 129.227 32.1165 129.227 32.3477C129.227 32.8717 129.048 33.29 128.689 33.6025C128.331 33.915 127.84 34.0713 127.215 34.0713C127.055 34.0713 126.906 34.0583 126.766 34.0322C126.421 34.2145 126.248 34.444 126.248 34.7207C126.248 34.8672 126.308 34.9762 126.429 35.0479C126.549 35.1162 126.756 35.1504 127.049 35.1504H127.996C128.576 35.1504 129.02 35.2725 129.329 35.5166C129.642 35.7607 129.798 36.1156 129.798 36.5811C129.798 37.1735 129.56 37.6243 129.085 37.9336C128.61 38.2461 127.916 38.4023 127.005 38.4023C126.305 38.4023 125.765 38.2721 125.384 38.0117C125.006 37.7513 124.817 37.3835 124.817 36.9082C124.817 36.5827 124.922 36.3011 125.13 36.0635C125.338 35.8258 125.631 35.6647 126.009 35.5801C125.872 35.5182 125.757 35.4222 125.662 35.292C125.571 35.1618 125.525 35.0104 125.525 34.8379C125.525 34.6426 125.577 34.4717 125.682 34.3252C125.786 34.1787 125.95 34.0371 126.175 33.9004C125.898 33.7865 125.672 33.5928 125.496 33.3193C125.324 33.0459 125.237 32.7334 125.237 32.3818C125.237 31.7959 125.413 31.3451 125.765 31.0293C126.116 30.7103 126.614 30.5508 127.259 30.5508C127.539 30.5508 127.791 30.5833 128.016 30.6484H129.866ZM125.599 36.8984C125.599 37.1882 125.721 37.4079 125.965 37.5576C126.209 37.7074 126.559 37.7822 127.015 37.7822C127.695 37.7822 128.198 37.6797 128.523 37.4746C128.852 37.2728 129.017 36.9977 129.017 36.6494C129.017 36.3597 128.927 36.1579 128.748 36.0439C128.569 35.9333 128.232 35.8779 127.737 35.8779H126.766C126.398 35.8779 126.111 35.9658 125.906 36.1416C125.701 36.3174 125.599 36.5697 125.599 36.8984ZM126.038 32.3623C126.038 32.7367 126.144 33.0199 126.355 33.2119C126.567 33.404 126.862 33.5 127.239 33.5C128.03 33.5 128.426 33.1159 128.426 32.3477C128.426 31.5436 128.025 31.1416 127.225 31.1416C126.844 31.1416 126.551 31.2441 126.346 31.4492C126.141 31.6543 126.038 31.9587 126.038 32.3623ZM131.775 36H130.965V28.4023H131.775V36ZM134.305 36H133.494V30.6484H134.305V36ZM133.426 29.1982C133.426 29.0127 133.471 28.8776 133.562 28.793C133.654 28.7051 133.768 28.6611 133.904 28.6611C134.035 28.6611 134.147 28.7051 134.241 28.793C134.336 28.8809 134.383 29.016 134.383 29.1982C134.383 29.3805 134.336 29.5173 134.241 29.6084C134.147 29.6963 134.035 29.7402 133.904 29.7402C133.768 29.7402 133.654 29.6963 133.562 29.6084C133.471 29.5173 133.426 29.3805 133.426 29.1982ZM139.476 34.54C139.476 35.0381 139.29 35.4222 138.919 35.6924C138.548 35.9626 138.027 36.0977 137.356 36.0977C136.647 36.0977 136.093 35.9854 135.696 35.7607V35.0088C135.953 35.139 136.229 35.2415 136.521 35.3164C136.818 35.3913 137.103 35.4287 137.376 35.4287C137.799 35.4287 138.125 35.362 138.353 35.2285C138.58 35.0918 138.694 34.8851 138.694 34.6084C138.694 34.4001 138.603 34.2227 138.421 34.0762C138.242 33.9264 137.89 33.7507 137.366 33.5488C136.868 33.3633 136.513 33.2021 136.302 33.0654C136.093 32.9255 135.937 32.7676 135.833 32.5918C135.732 32.416 135.682 32.2061 135.682 31.9619C135.682 31.5257 135.859 31.1823 136.214 30.9316C136.569 30.6777 137.055 30.5508 137.674 30.5508C138.25 30.5508 138.813 30.668 139.363 30.9023L139.075 31.5615C138.538 31.3402 138.051 31.2295 137.615 31.2295C137.231 31.2295 136.941 31.2897 136.746 31.4102C136.551 31.5306 136.453 31.6966 136.453 31.9082C136.453 32.0514 136.489 32.1735 136.561 32.2744C136.635 32.3753 136.754 32.4714 136.917 32.5625C137.08 32.6536 137.392 32.7855 137.854 32.958C138.489 33.1891 138.917 33.4219 139.139 33.6562C139.363 33.8906 139.476 34.1852 139.476 34.54ZM144.461 36V32.5381C144.461 32.1019 144.362 31.7764 144.163 31.5615C143.965 31.3467 143.654 31.2393 143.23 31.2393C142.667 31.2393 142.256 31.3923 141.995 31.6982C141.738 32.0042 141.609 32.5055 141.609 33.2021V36H140.799V28.4023H141.609V30.7021C141.609 30.9788 141.596 31.2083 141.57 31.3906H141.619C141.779 31.1335 142.005 30.9316 142.298 30.7852C142.594 30.6354 142.931 30.5605 143.309 30.5605C143.963 30.5605 144.453 30.7168 144.778 31.0293C145.107 31.3385 145.271 31.8317 145.271 32.5088V36H144.461Z" fill="#8F9BB2"/>
<defs>
<filter id="filter0_dd" x="0" y="0" width="188" height="64" filterUnits="userSpaceOnUse" color-interpolation-filters="sRGB">
<feFlood flood-opacity="0" result="BackgroundImageFix"/>
<feColorMatrix in="SourceAlpha" type="matrix" values="0 0 0 0 0 0 0 0 0 0 0 0 0 0 0 0 0 0 127 0"/>
<feOffset dx="4" dy="4"/>
<feGaussianBlur stdDeviation="5"/>
<feColorMatrix type="matrix" values="0 0 0 0 0.5402 0 0 0 0 0.6068 0 0 0 0 0.74 0 0 0 0.4 0"/>
<feBlend mode="normal" in2="BackgroundImageFix" result="effect1_dropShadow"/>
<feColorMatrix in="SourceAlpha" type="matrix" values="0 0 0 0 0 0 0 0 0 0 0 0 0 0 0 0 0 0 127 0"/>
<feOffset dx="-4" dy="-4"/>
<feGaussianBlur stdDeviation="5"/>
<feColorMatrix type="matrix" values="0 0 0 0 1 0 0 0 0 1 0 0 0 0 1 0 0 0 0.9 0"/>
<feBlend mode="normal" in2="effect1_dropShadow" result="effect2_dropShadow"/>
<feBlend mode="normal" in="SourceGraphic" in2="effect2_dropShadow" result="shape"/>
</filter>
<linearGradient id="paint0_linear" x1="170.667" y1="47.45" x2="155.117" y2="-16.7676" gradientUnits="userSpaceOnUse">
<stop stop-color="white"/>
<stop offset="1" stop-color="#E9F0F7"/>
</linearGradient>
<linearGradient id="paint1_linear" x1="166" y1="48.5" x2="150.222" y2="-19.2682" gradientUnits="userSpaceOnUse">
<stop stop-color="#D6E5F2"/>
<stop offset="0.713542" stop-color="white" stop-opacity="0.3"/>
</linearGradient>
</defs>
</svg>
