<?xml version="1.0" encoding="utf-8"?>
<!-- Generator: Adobe Illustrator 21.0.0, SVG Export Plug-In . SVG Version: 6.00 Build 0)  -->
<svg version="1.1" id="Слой_1" xmlns="http://www.w3.org/2000/svg" xmlns:xlink="http://www.w3.org/1999/xlink" x="0px" y="0px"
	 viewBox="0 0 500 435" style="enable-background:new 0 0 500 435;" xml:space="preserve">
<style type="text/css">
	.st0{fill:#6FAEEC;}
</style>
<path class="st0" d="M8.8,208.7l115.2,43l44.6,143.4c2.9,9.2,14.1,12.6,21.5,6.5l64.2-52.3c6.7-5.5,16.3-5.8,23.4-0.7l115.8,84.1
	c8,5.8,19.3,1.4,21.3-8.2l84.9-408.2c2.2-10.5-8.2-19.3-18.2-15.4L8.7,183.3C-3,187.8-2.9,204.4,8.8,208.7L8.8,208.7z M161.4,228.9
	L386.6,90.2c4-2.5,8.2,3,4.7,6.2L205.5,269.1c-6.5,6.1-10.7,14.2-11.9,23l-6.3,46.9c-0.8,6.3-9.6,6.9-11.4,0.8l-24.3-85.5
	C148.8,244.6,152.8,234.2,161.4,228.9L161.4,228.9z M161.4,228.9"/>
</svg>
