<svg width="43" height="43" viewBox="0 0 43 43" fill="none" xmlns="http://www.w3.org/2000/svg">
<circle cx="21.5" cy="21.5" r="21.5" fill="#CCEDFF"/>
<path d="M24.75 15H18.25C16.4551 15 15 16.4551 15 18.25V24.75C15 26.5449 16.4551 28 18.25 28H24.75C26.5449 28 28 26.5449 28 24.75V18.25C28 16.4551 26.5449 15 24.75 15Z" stroke="#39A1F7" stroke-width="1.5" stroke-linecap="round" stroke-linejoin="round"/>
<path d="M24.1719 21.2186C24.2521 21.7596 24.1597 22.3121 23.9078 22.7975C23.6559 23.2829 23.2574 23.6765 22.7689 23.9224C22.2804 24.1683 21.7269 24.2539 21.1869 24.167C20.647 24.0801 20.1482 23.8252 19.7615 23.4385C19.3748 23.0518 19.1199 22.553 19.033 22.0131C18.9461 21.4731 19.0317 20.9196 19.2776 20.4311C19.5235 19.9426 19.9171 19.5441 20.4025 19.2922C20.8879 19.0403 21.4404 18.9479 21.9814 19.0281C22.5332 19.11 23.044 19.3671 23.4385 19.7615C23.8329 20.156 24.0901 20.6668 24.1719 21.2186Z" stroke="#39A1F7" stroke-width="1.5" stroke-linecap="round" stroke-linejoin="round"/>
<path d="M25 18H25.006" stroke="#39A1F7" stroke-width="1.5" stroke-linecap="round" stroke-linejoin="round"/>
</svg>
