<svg width="37" height="37" viewBox="0 0 37 37" fill="none" xmlns="http://www.w3.org/2000/svg">
<circle cx="18.5" cy="18.5" r="18.5" fill="white"/>
<path d="M27 12.0073C26.3036 12.4986 25.5324 12.8743 24.7164 13.12C24.2784 12.6164 23.6962 12.2595 23.0488 12.0974C22.4013 11.9354 21.7196 11.9762 21.0961 12.2142C20.4725 12.4522 19.937 12.876 19.5622 13.4282C19.1873 13.9804 18.9911 14.6345 19 15.3019V16.0291C17.7219 16.0623 16.4555 15.7788 15.3135 15.204C14.1714 14.6292 13.1893 13.7809 12.4545 12.7346C12.4545 12.7346 9.54545 19.28 16.0909 22.1891C14.5931 23.2058 12.8088 23.7156 11 23.6437C17.5455 27.28 25.5455 23.6437 25.5455 15.28C25.5448 15.0775 25.5253 14.8754 25.4873 14.6764C26.2295 13.9444 26.7533 13.0202 27 12.0073Z" fill="#4F535B"/>
</svg>
